<svg width="24" height="24" viewBox="0 0 24 24" fill="none" xmlns="http://www.w3.org/2000/svg">
<path d="M2.3507 11.3741L6.9488 13.0886L8.74126 18.8557C8.8192 19.2454 9.2868 19.3233 9.59854 19.0895L12.1703 16.9853C12.4041 16.7515 12.7938 16.7515 13.1055 16.9853L17.7036 20.3364C18.0154 20.5702 18.483 20.4144 18.5609 20.0247L21.99 3.65866C22.0679 3.26899 21.6782 2.87932 21.2886 3.03519L2.3507 10.3609C1.8831 10.5168 1.8831 11.2182 2.3507 11.3741ZM8.50747 12.2313L17.5477 6.69807C17.7036 6.62013 17.8595 6.85394 17.7036 6.93187L10.2999 13.868C10.0661 14.1018 9.83233 14.4135 9.83233 14.8032L9.59854 16.6736C9.59854 16.9074 9.20886 16.9853 9.13093 16.6736L8.19572 13.2445C7.96192 12.8548 8.1178 12.3872 8.50747 12.2313Z" fill="white" fill-opacity="0.9"/>
</svg>